<svg width="31" height="31" viewBox="0 0 31 31" fill="none" xmlns="http://www.w3.org/2000/svg">
<path d="M27.125 7.72414C22.8237 7.29789 18.4967 7.07831 14.1825 7.07831C11.625 7.07831 9.0675 7.20747 6.51 7.46581L3.875 7.72414" stroke="#1B1B1B" stroke-width="1.5" stroke-linecap="round" stroke-linejoin="round"/>
<path d="M10.9791 6.41958L11.2633 4.7275C11.47 3.50042 11.625 2.58333 13.8079 2.58333H17.192C19.375 2.58333 19.5429 3.55208 19.7366 4.74042L20.0208 6.41958" stroke="#1B1B1B" stroke-width="1.5" stroke-linecap="round" stroke-linejoin="round"/>
<path d="M24.3478 11.8058L23.5082 24.8129C23.3661 26.8408 23.2499 28.4167 19.6461 28.4167H11.3536C7.74989 28.4167 7.63364 26.8408 7.49156 24.8129L6.65198 11.8058" stroke="#1B1B1B" stroke-width="1.5" stroke-linecap="round" stroke-linejoin="round"/>
<path d="M13.3424 21.3125H17.6437" stroke="#1B1B1B" stroke-width="1.5" stroke-linecap="round" stroke-linejoin="round"/>
<path d="M12.2709 16.1458H18.7292" stroke="#1B1B1B" stroke-width="1.5" stroke-linecap="round" stroke-linejoin="round"/>
</svg>
